G75*
G70*
%OFA0B0*%
%FSLAX24Y24*%
%IPPOS*%
%LPD*%
%AMOC8*
5,1,8,0,0,1.08239X$1,22.5*
%
%ADD10C,0.0000*%
%ADD11C,0.0060*%
%ADD12C,0.0030*%
%ADD13C,0.0040*%
%ADD14C,0.0080*%
%ADD15C,0.0100*%
%ADD16C,0.0050*%
D10*
X000100Y000100D02*
X000100Y013100D01*
X015100Y013100D01*
X015100Y000100D01*
X000100Y000100D01*
X007009Y002100D02*
X007011Y002148D01*
X007017Y002196D01*
X007027Y002243D01*
X007040Y002289D01*
X007058Y002334D01*
X007078Y002378D01*
X007103Y002420D01*
X007131Y002459D01*
X007161Y002496D01*
X007195Y002530D01*
X007232Y002562D01*
X007270Y002591D01*
X007311Y002616D01*
X007354Y002638D01*
X007399Y002656D01*
X007445Y002670D01*
X007492Y002681D01*
X007540Y002688D01*
X007588Y002691D01*
X007636Y002690D01*
X007684Y002685D01*
X007732Y002676D01*
X007778Y002664D01*
X007823Y002647D01*
X007867Y002627D01*
X007909Y002604D01*
X007949Y002577D01*
X007987Y002547D01*
X008022Y002514D01*
X008054Y002478D01*
X008084Y002440D01*
X008110Y002399D01*
X008132Y002356D01*
X008152Y002312D01*
X008167Y002267D01*
X008179Y002220D01*
X008187Y002172D01*
X008191Y002124D01*
X008191Y002076D01*
X008187Y002028D01*
X008179Y001980D01*
X008167Y001933D01*
X008152Y001888D01*
X008132Y001844D01*
X008110Y001801D01*
X008084Y001760D01*
X008054Y001722D01*
X008022Y001686D01*
X007987Y001653D01*
X007949Y001623D01*
X007909Y001596D01*
X007867Y001573D01*
X007823Y001553D01*
X007778Y001536D01*
X007732Y001524D01*
X007684Y001515D01*
X007636Y001510D01*
X007588Y001509D01*
X007540Y001512D01*
X007492Y001519D01*
X007445Y001530D01*
X007399Y001544D01*
X007354Y001562D01*
X007311Y001584D01*
X007270Y001609D01*
X007232Y001638D01*
X007195Y001670D01*
X007161Y001704D01*
X007131Y001741D01*
X007103Y001780D01*
X007078Y001822D01*
X007058Y001866D01*
X007040Y001911D01*
X007027Y001957D01*
X007017Y002004D01*
X007011Y002052D01*
X007009Y002100D01*
X012970Y004350D02*
X012972Y004400D01*
X012978Y004450D01*
X012988Y004499D01*
X013002Y004547D01*
X013019Y004594D01*
X013040Y004639D01*
X013065Y004683D01*
X013093Y004724D01*
X013125Y004763D01*
X013159Y004800D01*
X013196Y004834D01*
X013236Y004864D01*
X013278Y004891D01*
X013322Y004915D01*
X013368Y004936D01*
X013415Y004952D01*
X013463Y004965D01*
X013513Y004974D01*
X013562Y004979D01*
X013613Y004980D01*
X013663Y004977D01*
X013712Y004970D01*
X013761Y004959D01*
X013809Y004944D01*
X013855Y004926D01*
X013900Y004904D01*
X013943Y004878D01*
X013984Y004849D01*
X014023Y004817D01*
X014059Y004782D01*
X014091Y004744D01*
X014121Y004704D01*
X014148Y004661D01*
X014171Y004617D01*
X014190Y004571D01*
X014206Y004523D01*
X014218Y004474D01*
X014226Y004425D01*
X014230Y004375D01*
X014230Y004325D01*
X014226Y004275D01*
X014218Y004226D01*
X014206Y004177D01*
X014190Y004129D01*
X014171Y004083D01*
X014148Y004039D01*
X014121Y003996D01*
X014091Y003956D01*
X014059Y003918D01*
X014023Y003883D01*
X013984Y003851D01*
X013943Y003822D01*
X013900Y003796D01*
X013855Y003774D01*
X013809Y003756D01*
X013761Y003741D01*
X013712Y003730D01*
X013663Y003723D01*
X013613Y003720D01*
X013562Y003721D01*
X013513Y003726D01*
X013463Y003735D01*
X013415Y003748D01*
X013368Y003764D01*
X013322Y003785D01*
X013278Y003809D01*
X013236Y003836D01*
X013196Y003866D01*
X013159Y003900D01*
X013125Y003937D01*
X013093Y003976D01*
X013065Y004017D01*
X013040Y004061D01*
X013019Y004106D01*
X013002Y004153D01*
X012988Y004201D01*
X012978Y004250D01*
X012972Y004300D01*
X012970Y004350D01*
X012970Y008850D02*
X012972Y008900D01*
X012978Y008950D01*
X012988Y008999D01*
X013002Y009047D01*
X013019Y009094D01*
X013040Y009139D01*
X013065Y009183D01*
X013093Y009224D01*
X013125Y009263D01*
X013159Y009300D01*
X013196Y009334D01*
X013236Y009364D01*
X013278Y009391D01*
X013322Y009415D01*
X013368Y009436D01*
X013415Y009452D01*
X013463Y009465D01*
X013513Y009474D01*
X013562Y009479D01*
X013613Y009480D01*
X013663Y009477D01*
X013712Y009470D01*
X013761Y009459D01*
X013809Y009444D01*
X013855Y009426D01*
X013900Y009404D01*
X013943Y009378D01*
X013984Y009349D01*
X014023Y009317D01*
X014059Y009282D01*
X014091Y009244D01*
X014121Y009204D01*
X014148Y009161D01*
X014171Y009117D01*
X014190Y009071D01*
X014206Y009023D01*
X014218Y008974D01*
X014226Y008925D01*
X014230Y008875D01*
X014230Y008825D01*
X014226Y008775D01*
X014218Y008726D01*
X014206Y008677D01*
X014190Y008629D01*
X014171Y008583D01*
X014148Y008539D01*
X014121Y008496D01*
X014091Y008456D01*
X014059Y008418D01*
X014023Y008383D01*
X013984Y008351D01*
X013943Y008322D01*
X013900Y008296D01*
X013855Y008274D01*
X013809Y008256D01*
X013761Y008241D01*
X013712Y008230D01*
X013663Y008223D01*
X013613Y008220D01*
X013562Y008221D01*
X013513Y008226D01*
X013463Y008235D01*
X013415Y008248D01*
X013368Y008264D01*
X013322Y008285D01*
X013278Y008309D01*
X013236Y008336D01*
X013196Y008366D01*
X013159Y008400D01*
X013125Y008437D01*
X013093Y008476D01*
X013065Y008517D01*
X013040Y008561D01*
X013019Y008606D01*
X013002Y008653D01*
X012988Y008701D01*
X012978Y008750D01*
X012972Y008800D01*
X012970Y008850D01*
X007009Y011100D02*
X007011Y011148D01*
X007017Y011196D01*
X007027Y011243D01*
X007040Y011289D01*
X007058Y011334D01*
X007078Y011378D01*
X007103Y011420D01*
X007131Y011459D01*
X007161Y011496D01*
X007195Y011530D01*
X007232Y011562D01*
X007270Y011591D01*
X007311Y011616D01*
X007354Y011638D01*
X007399Y011656D01*
X007445Y011670D01*
X007492Y011681D01*
X007540Y011688D01*
X007588Y011691D01*
X007636Y011690D01*
X007684Y011685D01*
X007732Y011676D01*
X007778Y011664D01*
X007823Y011647D01*
X007867Y011627D01*
X007909Y011604D01*
X007949Y011577D01*
X007987Y011547D01*
X008022Y011514D01*
X008054Y011478D01*
X008084Y011440D01*
X008110Y011399D01*
X008132Y011356D01*
X008152Y011312D01*
X008167Y011267D01*
X008179Y011220D01*
X008187Y011172D01*
X008191Y011124D01*
X008191Y011076D01*
X008187Y011028D01*
X008179Y010980D01*
X008167Y010933D01*
X008152Y010888D01*
X008132Y010844D01*
X008110Y010801D01*
X008084Y010760D01*
X008054Y010722D01*
X008022Y010686D01*
X007987Y010653D01*
X007949Y010623D01*
X007909Y010596D01*
X007867Y010573D01*
X007823Y010553D01*
X007778Y010536D01*
X007732Y010524D01*
X007684Y010515D01*
X007636Y010510D01*
X007588Y010509D01*
X007540Y010512D01*
X007492Y010519D01*
X007445Y010530D01*
X007399Y010544D01*
X007354Y010562D01*
X007311Y010584D01*
X007270Y010609D01*
X007232Y010638D01*
X007195Y010670D01*
X007161Y010704D01*
X007131Y010741D01*
X007103Y010780D01*
X007078Y010822D01*
X007058Y010866D01*
X007040Y010911D01*
X007027Y010957D01*
X007017Y011004D01*
X007011Y011052D01*
X007009Y011100D01*
D11*
X009630Y010521D02*
X009630Y009880D01*
X009630Y010094D02*
X009950Y010094D01*
X010057Y010200D01*
X010057Y010414D01*
X009950Y010521D01*
X009630Y010521D01*
X009844Y010094D02*
X010057Y009880D01*
X010275Y009987D02*
X010381Y009880D01*
X010488Y009880D01*
X010595Y009987D01*
X010595Y010521D01*
X010488Y010521D02*
X010702Y010521D01*
X010919Y010200D02*
X011346Y010200D01*
X011564Y010200D02*
X011777Y010307D01*
X011884Y010307D01*
X011991Y010200D01*
X011991Y009987D01*
X011884Y009880D01*
X011670Y009880D01*
X011564Y009987D01*
X011564Y010200D02*
X011564Y010521D01*
X011991Y010521D01*
X011239Y010521D02*
X010919Y010200D01*
X011239Y009880D02*
X011239Y010521D01*
X002807Y010307D02*
X002807Y009880D01*
X002380Y009880D02*
X002380Y010307D01*
X002594Y010521D01*
X002807Y010307D01*
X002807Y010200D02*
X002380Y010200D01*
D12*
X000835Y010191D02*
X000835Y010085D01*
X000782Y010031D01*
X000675Y010031D01*
X000621Y010085D01*
X000621Y010191D01*
X000675Y010245D01*
X000782Y010245D01*
X000835Y010191D01*
X000835Y009923D02*
X000782Y009870D01*
X000568Y009870D01*
X000621Y009923D02*
X000621Y009816D01*
X000621Y009385D02*
X000835Y009385D01*
X000675Y009385D02*
X000675Y009172D01*
X000621Y009172D02*
X000515Y009279D01*
X000621Y009385D01*
X000621Y009172D02*
X000835Y009172D01*
X000835Y008742D02*
X000782Y008688D01*
X000568Y008688D01*
X000621Y008635D02*
X000621Y008742D01*
X000675Y008526D02*
X000728Y008526D01*
X000728Y008312D01*
X000675Y008312D02*
X000782Y008312D01*
X000835Y008366D01*
X000835Y008473D01*
X000675Y008526D02*
X000621Y008473D01*
X000621Y008366D01*
X000675Y008312D01*
X000621Y008204D02*
X000728Y008044D01*
X000835Y008204D01*
X000835Y008044D02*
X000515Y008044D01*
X000621Y007935D02*
X000621Y007775D01*
X000675Y007722D01*
X000782Y007722D01*
X000835Y007775D01*
X000835Y007935D01*
X000782Y007613D02*
X000675Y007613D01*
X000621Y007559D01*
X000621Y007453D01*
X000675Y007399D01*
X000782Y007399D01*
X000835Y007453D01*
X000835Y007559D01*
X000782Y007613D01*
X000782Y007291D02*
X000728Y007237D01*
X000728Y007130D01*
X000675Y007077D01*
X000621Y007130D01*
X000621Y007291D01*
X000782Y007291D02*
X000835Y007237D01*
X000835Y007077D01*
X000835Y006647D02*
X000835Y006594D01*
X000782Y006594D01*
X000782Y006647D01*
X000835Y006647D01*
X000835Y006485D02*
X000835Y006271D01*
X000835Y006378D02*
X000515Y006378D01*
X000621Y006271D01*
X000782Y006164D02*
X000835Y006164D01*
X000835Y006110D01*
X000782Y006110D01*
X000782Y006164D01*
X000835Y006001D02*
X000835Y005788D01*
X000835Y005895D02*
X000515Y005895D01*
X000621Y005788D01*
X000621Y005357D02*
X000835Y005250D01*
X000621Y005143D01*
X000675Y005035D02*
X000728Y005035D01*
X000728Y004821D01*
X000675Y004821D02*
X000782Y004821D01*
X000835Y004875D01*
X000835Y004981D01*
X000675Y005035D02*
X000621Y004981D01*
X000621Y004875D01*
X000675Y004821D01*
X000621Y004713D02*
X000621Y004659D01*
X000728Y004553D01*
X000835Y004553D02*
X000621Y004553D01*
X000675Y004122D02*
X000675Y003908D01*
X000621Y003477D02*
X000621Y003317D01*
X000675Y003263D01*
X000782Y003263D01*
X000835Y003317D01*
X000835Y003477D01*
X000835Y003155D02*
X000835Y003049D01*
X000835Y003102D02*
X000515Y003102D01*
X000515Y003049D01*
X000515Y002887D02*
X000835Y002887D01*
X000835Y002834D02*
X000835Y002941D01*
X000515Y002887D02*
X000515Y002834D01*
X000782Y002403D02*
X000782Y002350D01*
X000835Y002350D01*
X000835Y002403D01*
X000782Y002403D01*
X000835Y002403D02*
X000942Y002297D01*
X000782Y002188D02*
X000675Y002188D01*
X000621Y002135D01*
X000621Y002028D01*
X000675Y001974D01*
X000782Y001974D01*
X000835Y002028D01*
X000835Y002135D01*
X000782Y002188D01*
X000835Y001866D02*
X000835Y001760D01*
X000835Y001813D02*
X000515Y001813D01*
X000515Y001760D01*
X000621Y001651D02*
X000835Y001437D01*
X000835Y001651D01*
X000621Y001651D02*
X000621Y001437D01*
X000675Y001329D02*
X000621Y001275D01*
X000621Y001168D01*
X000675Y001115D01*
X000782Y001115D01*
X000835Y001168D01*
X000835Y001275D01*
X000782Y001329D01*
X000675Y001329D01*
X000728Y010676D02*
X000728Y010836D01*
X000675Y010889D01*
X000568Y010889D01*
X000515Y010836D01*
X000515Y010676D01*
X000835Y010676D01*
X000728Y010783D02*
X000835Y010889D01*
X000782Y010998D02*
X000835Y011051D01*
X000835Y011105D01*
X000782Y011158D01*
X000515Y011158D01*
X000515Y011105D02*
X000515Y011212D01*
X000675Y011320D02*
X000675Y011534D01*
X000675Y011643D02*
X000515Y011643D01*
X000515Y011856D01*
X000621Y011803D02*
X000675Y011856D01*
X000782Y011856D01*
X000835Y011803D01*
X000835Y011696D01*
X000782Y011643D01*
X000675Y011643D02*
X000621Y011749D01*
X000621Y011803D01*
X000515Y011481D02*
X000675Y011320D01*
X000835Y011481D02*
X000515Y011481D01*
D13*
X009120Y012197D02*
X009197Y012120D01*
X009350Y012120D01*
X009427Y012197D01*
X009427Y012504D01*
X009350Y012580D01*
X009197Y012580D01*
X009120Y012504D01*
X009120Y012197D01*
X009580Y012273D02*
X009811Y012273D01*
X009887Y012350D01*
X009887Y012504D01*
X009811Y012580D01*
X009580Y012580D01*
X009580Y012120D01*
X009734Y012273D02*
X009887Y012120D01*
X010041Y012120D02*
X010271Y012120D01*
X010348Y012197D01*
X010348Y012504D01*
X010271Y012580D01*
X010041Y012580D01*
X010041Y012120D01*
X010501Y012120D02*
X010808Y012120D01*
X010962Y012120D02*
X010962Y012580D01*
X011192Y012580D01*
X011268Y012504D01*
X011268Y012350D01*
X011192Y012273D01*
X010962Y012273D01*
X011115Y012273D02*
X011268Y012120D01*
X011422Y012273D02*
X011729Y012273D01*
X011652Y012120D02*
X011652Y012580D01*
X011652Y012427D02*
X011422Y012427D01*
X011499Y012580D02*
X011499Y012120D01*
X011652Y012427D02*
X011729Y012427D01*
X011882Y012427D02*
X011882Y012350D01*
X011959Y012350D01*
X011959Y012427D01*
X011882Y012427D01*
X011882Y012197D02*
X011882Y012120D01*
X011959Y012120D01*
X011959Y012197D01*
X011882Y012197D01*
X012573Y012197D02*
X012650Y012120D01*
X012803Y012120D01*
X012880Y012197D01*
X012880Y012273D01*
X012803Y012350D01*
X012573Y012350D01*
X012573Y012197D01*
X012573Y012350D02*
X012726Y012504D01*
X012880Y012580D01*
X013033Y012504D02*
X013110Y012580D01*
X013264Y012580D01*
X013340Y012504D01*
X013033Y012197D01*
X013110Y012120D01*
X013264Y012120D01*
X013340Y012197D01*
X013340Y012504D01*
X013494Y012504D02*
X013494Y012427D01*
X013570Y012350D01*
X013801Y012350D01*
X013801Y012197D02*
X013801Y012504D01*
X013724Y012580D01*
X013570Y012580D01*
X013494Y012504D01*
X013494Y012197D02*
X013570Y012120D01*
X013724Y012120D01*
X013801Y012197D01*
X013954Y012120D02*
X014261Y012120D01*
X014108Y012120D02*
X014108Y012580D01*
X013954Y012427D01*
X014415Y012504D02*
X014491Y012580D01*
X014645Y012580D01*
X014721Y012504D01*
X014721Y012427D01*
X014415Y012120D01*
X014721Y012120D01*
X013033Y012197D02*
X013033Y012504D01*
X010808Y012580D02*
X010501Y012580D01*
X010501Y012120D01*
X010501Y012350D02*
X010655Y012350D01*
D14*
X009663Y009600D02*
X014781Y009600D01*
X014781Y003600D01*
X009663Y003600D01*
X009663Y009600D01*
D15*
X006250Y011100D02*
X006252Y011173D01*
X006258Y011246D01*
X006268Y011318D01*
X006282Y011390D01*
X006299Y011461D01*
X006321Y011531D01*
X006346Y011600D01*
X006375Y011667D01*
X006407Y011732D01*
X006443Y011796D01*
X006483Y011858D01*
X006525Y011917D01*
X006571Y011974D01*
X006620Y012028D01*
X006672Y012080D01*
X006726Y012129D01*
X006783Y012175D01*
X006842Y012217D01*
X006904Y012257D01*
X006968Y012293D01*
X007033Y012325D01*
X007100Y012354D01*
X007169Y012379D01*
X007239Y012401D01*
X007310Y012418D01*
X007382Y012432D01*
X007454Y012442D01*
X007527Y012448D01*
X007600Y012450D01*
X007673Y012448D01*
X007746Y012442D01*
X007818Y012432D01*
X007890Y012418D01*
X007961Y012401D01*
X008031Y012379D01*
X008100Y012354D01*
X008167Y012325D01*
X008232Y012293D01*
X008296Y012257D01*
X008358Y012217D01*
X008417Y012175D01*
X008474Y012129D01*
X008528Y012080D01*
X008580Y012028D01*
X008629Y011974D01*
X008675Y011917D01*
X008717Y011858D01*
X008757Y011796D01*
X008793Y011732D01*
X008825Y011667D01*
X008854Y011600D01*
X008879Y011531D01*
X008901Y011461D01*
X008918Y011390D01*
X008932Y011318D01*
X008942Y011246D01*
X008948Y011173D01*
X008950Y011100D01*
X008948Y011027D01*
X008942Y010954D01*
X008932Y010882D01*
X008918Y010810D01*
X008901Y010739D01*
X008879Y010669D01*
X008854Y010600D01*
X008825Y010533D01*
X008793Y010468D01*
X008757Y010404D01*
X008717Y010342D01*
X008675Y010283D01*
X008629Y010226D01*
X008580Y010172D01*
X008528Y010120D01*
X008474Y010071D01*
X008417Y010025D01*
X008358Y009983D01*
X008296Y009943D01*
X008232Y009907D01*
X008167Y009875D01*
X008100Y009846D01*
X008031Y009821D01*
X007961Y009799D01*
X007890Y009782D01*
X007818Y009768D01*
X007746Y009758D01*
X007673Y009752D01*
X007600Y009750D01*
X007527Y009752D01*
X007454Y009758D01*
X007382Y009768D01*
X007310Y009782D01*
X007239Y009799D01*
X007169Y009821D01*
X007100Y009846D01*
X007033Y009875D01*
X006968Y009907D01*
X006904Y009943D01*
X006842Y009983D01*
X006783Y010025D01*
X006726Y010071D01*
X006672Y010120D01*
X006620Y010172D01*
X006571Y010226D01*
X006525Y010283D01*
X006483Y010342D01*
X006443Y010404D01*
X006407Y010468D01*
X006375Y010533D01*
X006346Y010600D01*
X006321Y010669D01*
X006299Y010739D01*
X006282Y010810D01*
X006268Y010882D01*
X006258Y010954D01*
X006252Y011027D01*
X006250Y011100D01*
X006250Y002100D02*
X006252Y002173D01*
X006258Y002246D01*
X006268Y002318D01*
X006282Y002390D01*
X006299Y002461D01*
X006321Y002531D01*
X006346Y002600D01*
X006375Y002667D01*
X006407Y002732D01*
X006443Y002796D01*
X006483Y002858D01*
X006525Y002917D01*
X006571Y002974D01*
X006620Y003028D01*
X006672Y003080D01*
X006726Y003129D01*
X006783Y003175D01*
X006842Y003217D01*
X006904Y003257D01*
X006968Y003293D01*
X007033Y003325D01*
X007100Y003354D01*
X007169Y003379D01*
X007239Y003401D01*
X007310Y003418D01*
X007382Y003432D01*
X007454Y003442D01*
X007527Y003448D01*
X007600Y003450D01*
X007673Y003448D01*
X007746Y003442D01*
X007818Y003432D01*
X007890Y003418D01*
X007961Y003401D01*
X008031Y003379D01*
X008100Y003354D01*
X008167Y003325D01*
X008232Y003293D01*
X008296Y003257D01*
X008358Y003217D01*
X008417Y003175D01*
X008474Y003129D01*
X008528Y003080D01*
X008580Y003028D01*
X008629Y002974D01*
X008675Y002917D01*
X008717Y002858D01*
X008757Y002796D01*
X008793Y002732D01*
X008825Y002667D01*
X008854Y002600D01*
X008879Y002531D01*
X008901Y002461D01*
X008918Y002390D01*
X008932Y002318D01*
X008942Y002246D01*
X008948Y002173D01*
X008950Y002100D01*
X008948Y002027D01*
X008942Y001954D01*
X008932Y001882D01*
X008918Y001810D01*
X008901Y001739D01*
X008879Y001669D01*
X008854Y001600D01*
X008825Y001533D01*
X008793Y001468D01*
X008757Y001404D01*
X008717Y001342D01*
X008675Y001283D01*
X008629Y001226D01*
X008580Y001172D01*
X008528Y001120D01*
X008474Y001071D01*
X008417Y001025D01*
X008358Y000983D01*
X008296Y000943D01*
X008232Y000907D01*
X008167Y000875D01*
X008100Y000846D01*
X008031Y000821D01*
X007961Y000799D01*
X007890Y000782D01*
X007818Y000768D01*
X007746Y000758D01*
X007673Y000752D01*
X007600Y000750D01*
X007527Y000752D01*
X007454Y000758D01*
X007382Y000768D01*
X007310Y000782D01*
X007239Y000799D01*
X007169Y000821D01*
X007100Y000846D01*
X007033Y000875D01*
X006968Y000907D01*
X006904Y000943D01*
X006842Y000983D01*
X006783Y001025D01*
X006726Y001071D01*
X006672Y001120D01*
X006620Y001172D01*
X006571Y001226D01*
X006525Y001283D01*
X006483Y001342D01*
X006443Y001404D01*
X006407Y001468D01*
X006375Y001533D01*
X006346Y001600D01*
X006321Y001669D01*
X006299Y001739D01*
X006282Y001810D01*
X006268Y001882D01*
X006258Y001954D01*
X006252Y002027D01*
X006250Y002100D01*
D16*
X004700Y004100D02*
X004700Y006100D01*
X004300Y006100D01*
X004300Y007100D01*
X004700Y007100D01*
X004700Y009100D01*
X004600Y009100D02*
X002400Y009100D01*
X002400Y008730D01*
X002400Y004470D02*
X002400Y004100D01*
X004600Y004100D01*
M02*
