G75*
G70*
%OFA0B0*%
%FSLAX24Y24*%
%IPPOS*%
%LPD*%
%AMOC8*
5,1,8,0,0,1.08239X$1,22.5*
%
%ADD10C,0.0000*%
%ADD11C,0.0740*%
%ADD12R,0.0740X0.0740*%
%ADD13C,0.0060*%
%ADD14C,0.0240*%
D10*
X000100Y000100D02*
X000100Y013100D01*
X015100Y013100D01*
X015100Y000100D01*
X000100Y000100D01*
X007009Y002100D02*
X007011Y002148D01*
X007017Y002196D01*
X007027Y002243D01*
X007040Y002289D01*
X007058Y002334D01*
X007078Y002378D01*
X007103Y002420D01*
X007131Y002459D01*
X007161Y002496D01*
X007195Y002530D01*
X007232Y002562D01*
X007270Y002591D01*
X007311Y002616D01*
X007354Y002638D01*
X007399Y002656D01*
X007445Y002670D01*
X007492Y002681D01*
X007540Y002688D01*
X007588Y002691D01*
X007636Y002690D01*
X007684Y002685D01*
X007732Y002676D01*
X007778Y002664D01*
X007823Y002647D01*
X007867Y002627D01*
X007909Y002604D01*
X007949Y002577D01*
X007987Y002547D01*
X008022Y002514D01*
X008054Y002478D01*
X008084Y002440D01*
X008110Y002399D01*
X008132Y002356D01*
X008152Y002312D01*
X008167Y002267D01*
X008179Y002220D01*
X008187Y002172D01*
X008191Y002124D01*
X008191Y002076D01*
X008187Y002028D01*
X008179Y001980D01*
X008167Y001933D01*
X008152Y001888D01*
X008132Y001844D01*
X008110Y001801D01*
X008084Y001760D01*
X008054Y001722D01*
X008022Y001686D01*
X007987Y001653D01*
X007949Y001623D01*
X007909Y001596D01*
X007867Y001573D01*
X007823Y001553D01*
X007778Y001536D01*
X007732Y001524D01*
X007684Y001515D01*
X007636Y001510D01*
X007588Y001509D01*
X007540Y001512D01*
X007492Y001519D01*
X007445Y001530D01*
X007399Y001544D01*
X007354Y001562D01*
X007311Y001584D01*
X007270Y001609D01*
X007232Y001638D01*
X007195Y001670D01*
X007161Y001704D01*
X007131Y001741D01*
X007103Y001780D01*
X007078Y001822D01*
X007058Y001866D01*
X007040Y001911D01*
X007027Y001957D01*
X007017Y002004D01*
X007011Y002052D01*
X007009Y002100D01*
X012970Y004350D02*
X012972Y004400D01*
X012978Y004450D01*
X012988Y004499D01*
X013002Y004547D01*
X013019Y004594D01*
X013040Y004639D01*
X013065Y004683D01*
X013093Y004724D01*
X013125Y004763D01*
X013159Y004800D01*
X013196Y004834D01*
X013236Y004864D01*
X013278Y004891D01*
X013322Y004915D01*
X013368Y004936D01*
X013415Y004952D01*
X013463Y004965D01*
X013513Y004974D01*
X013562Y004979D01*
X013613Y004980D01*
X013663Y004977D01*
X013712Y004970D01*
X013761Y004959D01*
X013809Y004944D01*
X013855Y004926D01*
X013900Y004904D01*
X013943Y004878D01*
X013984Y004849D01*
X014023Y004817D01*
X014059Y004782D01*
X014091Y004744D01*
X014121Y004704D01*
X014148Y004661D01*
X014171Y004617D01*
X014190Y004571D01*
X014206Y004523D01*
X014218Y004474D01*
X014226Y004425D01*
X014230Y004375D01*
X014230Y004325D01*
X014226Y004275D01*
X014218Y004226D01*
X014206Y004177D01*
X014190Y004129D01*
X014171Y004083D01*
X014148Y004039D01*
X014121Y003996D01*
X014091Y003956D01*
X014059Y003918D01*
X014023Y003883D01*
X013984Y003851D01*
X013943Y003822D01*
X013900Y003796D01*
X013855Y003774D01*
X013809Y003756D01*
X013761Y003741D01*
X013712Y003730D01*
X013663Y003723D01*
X013613Y003720D01*
X013562Y003721D01*
X013513Y003726D01*
X013463Y003735D01*
X013415Y003748D01*
X013368Y003764D01*
X013322Y003785D01*
X013278Y003809D01*
X013236Y003836D01*
X013196Y003866D01*
X013159Y003900D01*
X013125Y003937D01*
X013093Y003976D01*
X013065Y004017D01*
X013040Y004061D01*
X013019Y004106D01*
X013002Y004153D01*
X012988Y004201D01*
X012978Y004250D01*
X012972Y004300D01*
X012970Y004350D01*
X012970Y008850D02*
X012972Y008900D01*
X012978Y008950D01*
X012988Y008999D01*
X013002Y009047D01*
X013019Y009094D01*
X013040Y009139D01*
X013065Y009183D01*
X013093Y009224D01*
X013125Y009263D01*
X013159Y009300D01*
X013196Y009334D01*
X013236Y009364D01*
X013278Y009391D01*
X013322Y009415D01*
X013368Y009436D01*
X013415Y009452D01*
X013463Y009465D01*
X013513Y009474D01*
X013562Y009479D01*
X013613Y009480D01*
X013663Y009477D01*
X013712Y009470D01*
X013761Y009459D01*
X013809Y009444D01*
X013855Y009426D01*
X013900Y009404D01*
X013943Y009378D01*
X013984Y009349D01*
X014023Y009317D01*
X014059Y009282D01*
X014091Y009244D01*
X014121Y009204D01*
X014148Y009161D01*
X014171Y009117D01*
X014190Y009071D01*
X014206Y009023D01*
X014218Y008974D01*
X014226Y008925D01*
X014230Y008875D01*
X014230Y008825D01*
X014226Y008775D01*
X014218Y008726D01*
X014206Y008677D01*
X014190Y008629D01*
X014171Y008583D01*
X014148Y008539D01*
X014121Y008496D01*
X014091Y008456D01*
X014059Y008418D01*
X014023Y008383D01*
X013984Y008351D01*
X013943Y008322D01*
X013900Y008296D01*
X013855Y008274D01*
X013809Y008256D01*
X013761Y008241D01*
X013712Y008230D01*
X013663Y008223D01*
X013613Y008220D01*
X013562Y008221D01*
X013513Y008226D01*
X013463Y008235D01*
X013415Y008248D01*
X013368Y008264D01*
X013322Y008285D01*
X013278Y008309D01*
X013236Y008336D01*
X013196Y008366D01*
X013159Y008400D01*
X013125Y008437D01*
X013093Y008476D01*
X013065Y008517D01*
X013040Y008561D01*
X013019Y008606D01*
X013002Y008653D01*
X012988Y008701D01*
X012978Y008750D01*
X012972Y008800D01*
X012970Y008850D01*
X007009Y011100D02*
X007011Y011148D01*
X007017Y011196D01*
X007027Y011243D01*
X007040Y011289D01*
X007058Y011334D01*
X007078Y011378D01*
X007103Y011420D01*
X007131Y011459D01*
X007161Y011496D01*
X007195Y011530D01*
X007232Y011562D01*
X007270Y011591D01*
X007311Y011616D01*
X007354Y011638D01*
X007399Y011656D01*
X007445Y011670D01*
X007492Y011681D01*
X007540Y011688D01*
X007588Y011691D01*
X007636Y011690D01*
X007684Y011685D01*
X007732Y011676D01*
X007778Y011664D01*
X007823Y011647D01*
X007867Y011627D01*
X007909Y011604D01*
X007949Y011577D01*
X007987Y011547D01*
X008022Y011514D01*
X008054Y011478D01*
X008084Y011440D01*
X008110Y011399D01*
X008132Y011356D01*
X008152Y011312D01*
X008167Y011267D01*
X008179Y011220D01*
X008187Y011172D01*
X008191Y011124D01*
X008191Y011076D01*
X008187Y011028D01*
X008179Y010980D01*
X008167Y010933D01*
X008152Y010888D01*
X008132Y010844D01*
X008110Y010801D01*
X008084Y010760D01*
X008054Y010722D01*
X008022Y010686D01*
X007987Y010653D01*
X007949Y010623D01*
X007909Y010596D01*
X007867Y010573D01*
X007823Y010553D01*
X007778Y010536D01*
X007732Y010524D01*
X007684Y010515D01*
X007636Y010510D01*
X007588Y010509D01*
X007540Y010512D01*
X007492Y010519D01*
X007445Y010530D01*
X007399Y010544D01*
X007354Y010562D01*
X007311Y010584D01*
X007270Y010609D01*
X007232Y010638D01*
X007195Y010670D01*
X007161Y010704D01*
X007131Y010741D01*
X007103Y010780D01*
X007078Y010822D01*
X007058Y010866D01*
X007040Y010911D01*
X007027Y010957D01*
X007017Y011004D01*
X007011Y011052D01*
X007009Y011100D01*
D11*
X010100Y008350D03*
X011100Y007850D03*
X010100Y007350D03*
X011100Y006850D03*
X010100Y006350D03*
X011100Y005850D03*
X010100Y005350D03*
D12*
X011100Y004850D03*
D13*
X010100Y005350D02*
X010100Y005600D01*
X003600Y005600D01*
X003600Y006100D02*
X010100Y006100D01*
X010100Y006350D01*
X009600Y006600D02*
X003600Y006600D01*
X003100Y008100D02*
X010100Y008100D01*
X010100Y008350D01*
X010100Y007350D02*
X010100Y007100D01*
X009600Y006600D01*
D14*
X003600Y006600D03*
X003600Y006100D03*
X003600Y005600D03*
X003100Y008100D03*
M02*
