G75*
G70*
%OFA0B0*%
%FSLAX24Y24*%
%IPPOS*%
%LPD*%
%AMOC8*
5,1,8,0,0,1.08239X$1,22.5*
%
%ADD10C,0.0000*%
%ADD11R,0.0780X0.0780*%
%ADD12C,0.0780*%
%ADD13C,0.0050*%
%ADD14C,0.0600*%
D10*
X000150Y000150D02*
X000150Y009402D01*
X008400Y009400D01*
X008400Y000150D01*
X000150Y000150D01*
X009205Y000150D02*
X009205Y009402D01*
X017455Y009400D01*
X017455Y000150D01*
X009205Y000150D01*
X009205Y010189D02*
X009205Y019441D01*
X017455Y019439D01*
X017455Y010189D01*
X009205Y010189D01*
X008400Y010189D02*
X008400Y019439D01*
X000150Y019441D01*
X000150Y010189D01*
X008400Y010189D01*
D11*
X006650Y008294D03*
X006650Y018333D03*
X015705Y018333D03*
X015705Y008294D03*
D12*
X015705Y007294D03*
X015705Y006294D03*
X015705Y005294D03*
X015705Y004294D03*
X015705Y003294D03*
X015705Y002294D03*
X015705Y001294D03*
X015705Y011333D03*
X015705Y012333D03*
X015705Y013333D03*
X015705Y014333D03*
X015705Y015333D03*
X015705Y016333D03*
X015705Y017333D03*
X006650Y017333D03*
X006650Y016333D03*
X006650Y015333D03*
X006650Y014333D03*
X006650Y013333D03*
X006650Y012333D03*
X006650Y011333D03*
X006650Y007294D03*
X006650Y006294D03*
X006650Y005294D03*
X006650Y004294D03*
X006650Y003294D03*
X006650Y002294D03*
X006650Y001294D03*
D13*
X003560Y001332D02*
X003555Y001383D01*
X003540Y001431D01*
X003516Y001476D01*
X003483Y001515D01*
X003444Y001548D01*
X003399Y001572D01*
X003350Y001586D01*
X003300Y001591D01*
X003249Y001586D01*
X003200Y001571D01*
X003155Y001547D01*
X003116Y001515D01*
X003083Y001476D01*
X003059Y001431D01*
X003045Y001382D01*
X003040Y001331D01*
X003045Y001280D01*
X003059Y001232D01*
X003083Y001187D01*
X003116Y001147D01*
X003155Y001115D01*
X003200Y001091D01*
X003249Y001076D01*
X003300Y001071D01*
X003350Y001076D01*
X003399Y001091D01*
X003444Y001115D01*
X003484Y001148D01*
X003516Y001187D01*
X003540Y001232D01*
X003555Y001281D01*
X003560Y001332D01*
X003558Y001314D02*
X003041Y001314D01*
X003043Y001363D02*
X003557Y001363D01*
X003546Y001411D02*
X003053Y001411D01*
X003075Y001460D02*
X003525Y001460D01*
X003489Y001508D02*
X003110Y001508D01*
X003172Y001557D02*
X003427Y001557D01*
X003550Y001266D02*
X003049Y001266D01*
X003067Y001217D02*
X003532Y001217D01*
X003501Y001169D02*
X003098Y001169D01*
X003149Y001120D02*
X003450Y001120D01*
X003304Y001072D02*
X003296Y001072D01*
X003300Y001859D02*
X003249Y001863D01*
X003200Y001878D01*
X003155Y001902D01*
X003116Y001935D01*
X003083Y001974D01*
X003059Y002019D01*
X003045Y002068D01*
X003040Y002119D01*
X003045Y002169D01*
X003059Y002218D01*
X003083Y002263D01*
X003116Y002302D01*
X003155Y002335D01*
X003200Y002359D01*
X003249Y002374D01*
X003300Y002379D01*
X003350Y002374D01*
X003399Y002359D01*
X003444Y002335D01*
X003483Y002303D01*
X003516Y002264D01*
X003540Y002219D01*
X003555Y002170D01*
X003560Y002119D01*
X003555Y002069D01*
X003540Y002020D01*
X003516Y001975D01*
X003484Y001935D01*
X003444Y001903D01*
X003399Y001879D01*
X003350Y001864D01*
X003300Y001859D01*
X003432Y001896D02*
X003167Y001896D01*
X003108Y001945D02*
X003491Y001945D01*
X003526Y001993D02*
X003073Y001993D01*
X003053Y002042D02*
X003547Y002042D01*
X003557Y002090D02*
X003042Y002090D01*
X003042Y002139D02*
X003558Y002139D01*
X003549Y002187D02*
X003050Y002187D01*
X003069Y002236D02*
X003531Y002236D01*
X003499Y002284D02*
X003101Y002284D01*
X003153Y002333D02*
X003447Y002333D01*
X003300Y011110D02*
X003249Y011115D01*
X003200Y011130D01*
X003155Y011154D01*
X003116Y011187D01*
X003083Y011226D01*
X003059Y011271D01*
X003045Y011320D01*
X003040Y011370D01*
X003045Y011421D01*
X003059Y011470D01*
X003083Y011515D01*
X003116Y011554D01*
X003155Y011587D01*
X003200Y011611D01*
X003249Y011625D01*
X003300Y011630D01*
X003350Y011626D01*
X003399Y011611D01*
X003444Y011587D01*
X003483Y011555D01*
X003516Y011516D01*
X003540Y011471D01*
X003555Y011422D01*
X003560Y011371D01*
X003555Y011321D01*
X003540Y011272D01*
X003516Y011227D01*
X003484Y011187D01*
X003444Y011155D01*
X003399Y011130D01*
X003350Y011116D01*
X003300Y011110D01*
X003305Y011111D02*
X003294Y011111D01*
X003149Y011160D02*
X003450Y011160D01*
X003501Y011208D02*
X003098Y011208D01*
X003067Y011257D02*
X003532Y011257D01*
X003550Y011305D02*
X003049Y011305D01*
X003041Y011354D02*
X003558Y011354D01*
X003557Y011402D02*
X003043Y011402D01*
X003054Y011451D02*
X003546Y011451D01*
X003525Y011499D02*
X003075Y011499D01*
X003110Y011548D02*
X003489Y011548D01*
X003427Y011596D02*
X003173Y011596D01*
X003249Y011903D02*
X003200Y011918D01*
X003155Y011942D01*
X003116Y011974D01*
X003083Y012013D01*
X003059Y012058D01*
X003045Y012107D01*
X003040Y012158D01*
X003045Y012209D01*
X003059Y012257D01*
X003083Y012302D01*
X003116Y012342D01*
X003155Y012374D01*
X003200Y012398D01*
X003249Y012413D01*
X003300Y012418D01*
X003350Y012413D01*
X003399Y012398D01*
X003444Y012374D01*
X003483Y012342D01*
X003516Y012303D01*
X003540Y012258D01*
X003555Y012209D01*
X003560Y012159D01*
X003555Y012108D01*
X003540Y012059D01*
X003516Y012014D01*
X003484Y011975D01*
X003444Y011942D01*
X003399Y011918D01*
X003350Y011903D01*
X003300Y011898D01*
X003249Y011903D01*
X003167Y011936D02*
X003432Y011936D01*
X003491Y011984D02*
X003108Y011984D01*
X003073Y012033D02*
X003526Y012033D01*
X003547Y012081D02*
X003053Y012081D01*
X003042Y012130D02*
X003557Y012130D01*
X003558Y012178D02*
X003042Y012178D01*
X003050Y012227D02*
X003549Y012227D01*
X003531Y012275D02*
X003069Y012275D01*
X003101Y012324D02*
X003499Y012324D01*
X003447Y012372D02*
X003153Y012372D01*
X012095Y012158D02*
X012100Y012107D01*
X012115Y012058D01*
X012139Y012013D01*
X012171Y011974D01*
X012210Y011942D01*
X012255Y011918D01*
X012304Y011903D01*
X012355Y011898D01*
X012406Y011903D01*
X012454Y011918D01*
X012499Y011942D01*
X012539Y011975D01*
X012571Y012014D01*
X012595Y012059D01*
X012610Y012108D01*
X012615Y012159D01*
X012610Y012209D01*
X012595Y012258D01*
X012571Y012303D01*
X012538Y012342D01*
X012499Y012374D01*
X012454Y012398D01*
X012405Y012413D01*
X012355Y012418D01*
X012304Y012413D01*
X012255Y012398D01*
X012210Y012374D01*
X012171Y012342D01*
X012139Y012302D01*
X012115Y012257D01*
X012100Y012209D01*
X012095Y012158D01*
X012097Y012178D02*
X012613Y012178D01*
X012612Y012130D02*
X012098Y012130D01*
X012108Y012081D02*
X012602Y012081D01*
X012581Y012033D02*
X012128Y012033D01*
X012163Y011984D02*
X012547Y011984D01*
X012487Y011936D02*
X012222Y011936D01*
X012304Y011625D02*
X012355Y011630D01*
X012405Y011626D01*
X012454Y011611D01*
X012499Y011587D01*
X012538Y011555D01*
X012571Y011516D01*
X012595Y011471D01*
X012610Y011422D01*
X012615Y011371D01*
X012610Y011321D01*
X012595Y011272D01*
X012571Y011227D01*
X012539Y011187D01*
X012499Y011155D01*
X012454Y011130D01*
X012406Y011116D01*
X012355Y011110D01*
X012304Y011115D01*
X012255Y011130D01*
X012210Y011154D01*
X012171Y011187D01*
X012139Y011226D01*
X012115Y011271D01*
X012100Y011320D01*
X012095Y011370D01*
X012100Y011421D01*
X012115Y011470D01*
X012139Y011515D01*
X012171Y011554D01*
X012210Y011587D01*
X012255Y011611D01*
X012304Y011625D01*
X012228Y011596D02*
X012482Y011596D01*
X012544Y011548D02*
X012165Y011548D01*
X012130Y011499D02*
X012580Y011499D01*
X012601Y011451D02*
X012109Y011451D01*
X012098Y011402D02*
X012612Y011402D01*
X012613Y011354D02*
X012096Y011354D01*
X012104Y011305D02*
X012605Y011305D01*
X012587Y011257D02*
X012122Y011257D01*
X012153Y011208D02*
X012556Y011208D01*
X012505Y011160D02*
X012204Y011160D01*
X012349Y011111D02*
X012361Y011111D01*
X012604Y012227D02*
X012105Y012227D01*
X012124Y012275D02*
X012586Y012275D01*
X012554Y012324D02*
X012156Y012324D01*
X012208Y012372D02*
X012502Y012372D01*
X012355Y002379D02*
X012304Y002374D01*
X012255Y002359D01*
X012210Y002335D01*
X012171Y002302D01*
X012139Y002263D01*
X012115Y002218D01*
X012100Y002169D01*
X012095Y002119D01*
X012100Y002068D01*
X012115Y002019D01*
X012139Y001974D01*
X012171Y001935D01*
X012210Y001902D01*
X012255Y001878D01*
X012304Y001863D01*
X012355Y001859D01*
X012406Y001864D01*
X012454Y001879D01*
X012499Y001903D01*
X012539Y001935D01*
X012571Y001975D01*
X012595Y002020D01*
X012610Y002069D01*
X012615Y002119D01*
X012610Y002170D01*
X012595Y002219D01*
X012571Y002264D01*
X012538Y002303D01*
X012499Y002335D01*
X012454Y002359D01*
X012405Y002374D01*
X012355Y002379D01*
X012208Y002333D02*
X012502Y002333D01*
X012554Y002284D02*
X012156Y002284D01*
X012124Y002236D02*
X012586Y002236D01*
X012605Y002187D02*
X012105Y002187D01*
X012097Y002139D02*
X012613Y002139D01*
X012612Y002090D02*
X012098Y002090D01*
X012108Y002042D02*
X012602Y002042D01*
X012581Y001993D02*
X012128Y001993D01*
X012163Y001945D02*
X012546Y001945D01*
X012487Y001896D02*
X012222Y001896D01*
X012304Y001586D02*
X012355Y001591D01*
X012405Y001586D01*
X012454Y001572D01*
X012499Y001548D01*
X012538Y001515D01*
X012571Y001476D01*
X012595Y001431D01*
X012610Y001383D01*
X012615Y001332D01*
X012610Y001281D01*
X012595Y001232D01*
X012571Y001187D01*
X012539Y001148D01*
X012499Y001115D01*
X012454Y001091D01*
X012406Y001076D01*
X012355Y001071D01*
X012304Y001076D01*
X012255Y001091D01*
X012210Y001115D01*
X012171Y001147D01*
X012139Y001187D01*
X012115Y001232D01*
X012100Y001280D01*
X012095Y001331D01*
X012100Y001382D01*
X012115Y001431D01*
X012139Y001476D01*
X012171Y001515D01*
X012210Y001547D01*
X012255Y001571D01*
X012304Y001586D01*
X012228Y001557D02*
X012482Y001557D01*
X012545Y001508D02*
X012165Y001508D01*
X012130Y001460D02*
X012580Y001460D01*
X012601Y001411D02*
X012109Y001411D01*
X012098Y001363D02*
X012612Y001363D01*
X012613Y001314D02*
X012096Y001314D01*
X012104Y001266D02*
X012605Y001266D01*
X012587Y001217D02*
X012122Y001217D01*
X012153Y001169D02*
X012556Y001169D01*
X012505Y001120D02*
X012204Y001120D01*
X012351Y001072D02*
X012359Y001072D01*
D14*
X012355Y001331D03*
X012355Y002119D03*
X012355Y011370D03*
X012355Y012158D03*
X003300Y012158D03*
X003300Y011370D03*
X003300Y002119D03*
X003300Y001331D03*
M02*
