G75*
G70*
%OFA0B0*%
%FSLAX24Y24*%
%IPPOS*%
%LPD*%
%AMOC8*
5,1,8,0,0,1.08239X$1,22.5*
%
%ADD10C,0.0000*%
%ADD11R,0.1500X0.0290*%
%ADD12R,0.0740X0.0740*%
%ADD13C,0.0740*%
%ADD14C,0.0560*%
%ADD15C,0.0320*%
%ADD16C,0.0100*%
%ADD17C,0.0120*%
D10*
X000150Y000150D02*
X000150Y009402D01*
X008400Y009400D01*
X008400Y000150D01*
X000150Y000150D01*
D11*
X001650Y005294D03*
X001650Y005794D03*
X001650Y006294D03*
X001650Y006794D03*
X001650Y007294D03*
X003650Y007294D03*
X003650Y006794D03*
X003650Y006294D03*
X003650Y005794D03*
X003650Y005294D03*
D12*
X006650Y008294D03*
D13*
X006650Y007294D03*
X006650Y006294D03*
X006650Y005294D03*
X006650Y004294D03*
X006650Y003294D03*
X006650Y002294D03*
X006650Y001294D03*
D14*
X003300Y001331D03*
X003300Y002119D03*
D15*
X006475Y002119D01*
X006650Y002294D01*
X006613Y001331D02*
X006650Y001294D01*
X006613Y001331D02*
X003300Y001331D01*
D16*
X003656Y000881D02*
X006129Y000881D01*
X006276Y000734D01*
X006519Y000634D01*
X006781Y000634D01*
X007024Y000734D01*
X007210Y000920D01*
X007310Y001162D01*
X007310Y001425D01*
X007210Y001668D01*
X007024Y001853D01*
X006963Y001878D01*
X006989Y001897D01*
X007047Y001955D01*
X007095Y002021D01*
X007132Y002094D01*
X007157Y002172D01*
X007169Y002244D01*
X006700Y002244D01*
X006700Y002344D01*
X007169Y002344D01*
X007157Y002415D01*
X007132Y002493D01*
X007095Y002566D01*
X007047Y002632D01*
X006989Y002690D01*
X006963Y002709D01*
X007024Y002734D01*
X007210Y002920D01*
X007310Y003162D01*
X007310Y003425D01*
X007210Y003668D01*
X007083Y003794D01*
X007210Y003920D01*
X007310Y004162D01*
X007310Y004425D01*
X007210Y004668D01*
X007083Y004794D01*
X007210Y004920D01*
X007310Y005162D01*
X007310Y005425D01*
X007300Y005449D01*
X007587Y005735D01*
X007640Y005864D01*
X007640Y006870D01*
X007587Y006998D01*
X007488Y007097D01*
X007360Y007150D01*
X007305Y007150D01*
X007310Y007162D01*
X007310Y007425D01*
X007210Y007668D01*
X007192Y007685D01*
X007266Y007759D01*
X007310Y007866D01*
X007310Y008721D01*
X007266Y008828D01*
X007184Y008910D01*
X007078Y008954D01*
X006222Y008954D01*
X006116Y008910D01*
X006034Y008828D01*
X005990Y008721D01*
X005990Y008019D01*
X002580Y008019D01*
X002452Y007965D01*
X002353Y007867D01*
X002300Y007738D01*
X002300Y007729D01*
X000842Y007729D01*
X000736Y007685D01*
X000654Y007603D01*
X000610Y007496D01*
X000610Y007091D01*
X000630Y007044D01*
X000610Y006996D01*
X000610Y006591D01*
X000630Y006544D01*
X000610Y006496D01*
X000610Y006091D01*
X000630Y006044D01*
X000610Y005996D01*
X000610Y005591D01*
X000630Y005544D01*
X000610Y005496D01*
X000610Y005091D01*
X000654Y004984D01*
X000736Y004903D01*
X000842Y004859D01*
X002300Y004859D01*
X002300Y004849D01*
X002353Y004720D01*
X002452Y004622D01*
X002580Y004569D01*
X005345Y004569D01*
X005473Y004622D01*
X005997Y005146D01*
X006090Y004920D01*
X006217Y004794D01*
X006090Y004668D01*
X005990Y004425D01*
X005990Y004162D01*
X006090Y003920D01*
X006217Y003794D01*
X006090Y003668D01*
X005990Y003425D01*
X005990Y003162D01*
X006090Y002920D01*
X006276Y002734D01*
X006337Y002709D01*
X006311Y002690D01*
X006253Y002632D01*
X006205Y002566D01*
X006168Y002493D01*
X006143Y002415D01*
X006131Y002344D01*
X006600Y002344D01*
X006600Y002244D01*
X006131Y002244D01*
X006143Y002172D01*
X006168Y002094D01*
X006205Y002021D01*
X006253Y001955D01*
X006311Y001897D01*
X006337Y001878D01*
X006276Y001853D01*
X006204Y001781D01*
X003656Y001781D01*
X003622Y001814D01*
X003609Y001820D01*
X003628Y001838D01*
X003667Y001893D01*
X003698Y001953D01*
X003719Y002018D01*
X003730Y002085D01*
X003730Y002100D01*
X003319Y002100D01*
X003319Y002137D01*
X003730Y002137D01*
X003730Y002152D01*
X003719Y002219D01*
X003698Y002284D01*
X003667Y002344D01*
X003628Y002399D01*
X003580Y002446D01*
X003525Y002486D01*
X003465Y002517D01*
X003400Y002538D01*
X003333Y002549D01*
X003319Y002549D01*
X003319Y002137D01*
X003281Y002137D01*
X003281Y002100D01*
X002870Y002100D01*
X002870Y002085D01*
X002880Y002018D01*
X002901Y001953D01*
X002932Y001893D01*
X002972Y001838D01*
X002990Y001820D01*
X002977Y001814D01*
X002816Y001654D01*
X002730Y001444D01*
X002730Y001218D01*
X002816Y001008D01*
X002977Y000848D01*
X003186Y000761D01*
X003413Y000761D01*
X003622Y000848D01*
X003656Y000881D01*
X003602Y000840D02*
X006171Y000840D01*
X006269Y000741D02*
X000440Y000741D01*
X000440Y000643D02*
X006497Y000643D01*
X006803Y000643D02*
X008110Y000643D01*
X008110Y000741D02*
X007031Y000741D01*
X007129Y000840D02*
X008110Y000840D01*
X008110Y000938D02*
X007217Y000938D01*
X007258Y001037D02*
X008110Y001037D01*
X008110Y001135D02*
X007299Y001135D01*
X007310Y001234D02*
X008110Y001234D01*
X008110Y001332D02*
X007310Y001332D01*
X007308Y001431D02*
X008110Y001431D01*
X008110Y001529D02*
X007267Y001529D01*
X007226Y001628D02*
X008110Y001628D01*
X008110Y001726D02*
X007151Y001726D01*
X007053Y001825D02*
X008110Y001825D01*
X008110Y001923D02*
X007015Y001923D01*
X007095Y002022D02*
X008110Y002022D01*
X008110Y002120D02*
X007140Y002120D01*
X007165Y002219D02*
X008110Y002219D01*
X008110Y002317D02*
X006700Y002317D01*
X006600Y002317D02*
X003681Y002317D01*
X003719Y002219D02*
X006135Y002219D01*
X006160Y002120D02*
X003319Y002120D01*
X003281Y002120D02*
X000440Y002120D01*
X000440Y002022D02*
X002880Y002022D01*
X002917Y001923D02*
X000440Y001923D01*
X000440Y001825D02*
X002985Y001825D01*
X002888Y001726D02*
X000440Y001726D01*
X000440Y001628D02*
X002805Y001628D01*
X002765Y001529D02*
X000440Y001529D01*
X000440Y001431D02*
X002730Y001431D01*
X002730Y001332D02*
X000440Y001332D01*
X000440Y001234D02*
X002730Y001234D01*
X002764Y001135D02*
X000440Y001135D01*
X000440Y001037D02*
X002805Y001037D01*
X002887Y000938D02*
X000440Y000938D01*
X000440Y000840D02*
X002997Y000840D01*
X003614Y001825D02*
X006247Y001825D01*
X006285Y001923D02*
X003683Y001923D01*
X003720Y002022D02*
X006205Y002022D01*
X006143Y002416D02*
X003611Y002416D01*
X003471Y002514D02*
X006179Y002514D01*
X006239Y002613D02*
X000440Y002613D01*
X000440Y002711D02*
X006332Y002711D01*
X006201Y002810D02*
X000440Y002810D01*
X000440Y002908D02*
X006102Y002908D01*
X006055Y003007D02*
X000440Y003007D01*
X000440Y003105D02*
X006014Y003105D01*
X005990Y003204D02*
X000440Y003204D01*
X000440Y003302D02*
X005990Y003302D01*
X005990Y003401D02*
X000440Y003401D01*
X000440Y003499D02*
X006021Y003499D01*
X006061Y003598D02*
X000440Y003598D01*
X000440Y003696D02*
X006119Y003696D01*
X006216Y003795D02*
X000440Y003795D01*
X000440Y003893D02*
X006117Y003893D01*
X006061Y003992D02*
X000440Y003992D01*
X000440Y004090D02*
X006020Y004090D01*
X005990Y004189D02*
X000440Y004189D01*
X000440Y004287D02*
X005990Y004287D01*
X005990Y004386D02*
X000440Y004386D01*
X000440Y004484D02*
X006014Y004484D01*
X006055Y004583D02*
X005378Y004583D01*
X005532Y004681D02*
X006104Y004681D01*
X006202Y004780D02*
X005631Y004780D01*
X005729Y004878D02*
X006132Y004878D01*
X006067Y004977D02*
X005828Y004977D01*
X005926Y005075D02*
X006026Y005075D01*
X005527Y005666D02*
X004690Y005666D01*
X004690Y005591D02*
X004690Y005996D01*
X004670Y006044D01*
X004690Y006091D01*
X004690Y006444D01*
X005998Y006444D01*
X005990Y006425D01*
X005990Y006162D01*
X006000Y006139D01*
X005130Y005269D01*
X004690Y005269D01*
X004690Y005496D01*
X004670Y005544D01*
X004690Y005591D01*
X004680Y005568D02*
X005429Y005568D01*
X005330Y005469D02*
X004690Y005469D01*
X004690Y005371D02*
X005232Y005371D01*
X005133Y005272D02*
X004690Y005272D01*
X004690Y005765D02*
X005626Y005765D01*
X005724Y005863D02*
X004690Y005863D01*
X004690Y005962D02*
X005823Y005962D01*
X005921Y006060D02*
X004677Y006060D01*
X004690Y006159D02*
X005992Y006159D01*
X005990Y006257D02*
X004690Y006257D01*
X004690Y006356D02*
X005990Y006356D01*
X005998Y007144D02*
X005990Y007162D01*
X005990Y007319D01*
X004690Y007319D01*
X004690Y007144D01*
X005998Y007144D01*
X005990Y007242D02*
X004690Y007242D01*
X005990Y008030D02*
X000440Y008030D01*
X000440Y007932D02*
X002418Y007932D01*
X002339Y007833D02*
X000440Y007833D01*
X000440Y007735D02*
X002300Y007735D01*
X000687Y007636D02*
X000440Y007636D01*
X000440Y007538D02*
X000627Y007538D01*
X000610Y007439D02*
X000440Y007439D01*
X000440Y007341D02*
X000610Y007341D01*
X000610Y007242D02*
X000440Y007242D01*
X000440Y007144D02*
X000610Y007144D01*
X000629Y007045D02*
X000440Y007045D01*
X000440Y006947D02*
X000610Y006947D01*
X000610Y006848D02*
X000440Y006848D01*
X000440Y006750D02*
X000610Y006750D01*
X000610Y006651D02*
X000440Y006651D01*
X000440Y006553D02*
X000626Y006553D01*
X000610Y006454D02*
X000440Y006454D01*
X000440Y006356D02*
X000610Y006356D01*
X000610Y006257D02*
X000440Y006257D01*
X000440Y006159D02*
X000610Y006159D01*
X000623Y006060D02*
X000440Y006060D01*
X000440Y005962D02*
X000610Y005962D01*
X000610Y005863D02*
X000440Y005863D01*
X000440Y005765D02*
X000610Y005765D01*
X000610Y005666D02*
X000440Y005666D01*
X000440Y005568D02*
X000620Y005568D01*
X000610Y005469D02*
X000440Y005469D01*
X000440Y005371D02*
X000610Y005371D01*
X000610Y005272D02*
X000440Y005272D01*
X000440Y005174D02*
X000610Y005174D01*
X000617Y005075D02*
X000440Y005075D01*
X000440Y004977D02*
X000662Y004977D01*
X000796Y004878D02*
X000440Y004878D01*
X000440Y004780D02*
X002329Y004780D01*
X002393Y004681D02*
X000440Y004681D01*
X000440Y004583D02*
X002547Y004583D01*
X003199Y002538D02*
X003135Y002517D01*
X003074Y002486D01*
X003019Y002446D01*
X002972Y002399D01*
X002932Y002344D01*
X002901Y002284D01*
X002880Y002219D01*
X002870Y002152D01*
X002870Y002137D01*
X003281Y002137D01*
X003281Y002549D01*
X003266Y002549D01*
X003199Y002538D01*
X003129Y002514D02*
X000440Y002514D01*
X000440Y002416D02*
X002988Y002416D01*
X002918Y002317D02*
X000440Y002317D01*
X000440Y002219D02*
X002880Y002219D01*
X003281Y002219D02*
X003319Y002219D01*
X003319Y002317D02*
X003281Y002317D01*
X003281Y002416D02*
X003319Y002416D01*
X003319Y002514D02*
X003281Y002514D01*
X000440Y000544D02*
X008110Y000544D01*
X008110Y000446D02*
X000440Y000446D01*
X000440Y000440D02*
X000440Y009112D01*
X008110Y009110D01*
X008110Y000440D01*
X000440Y000440D01*
X006968Y002711D02*
X008110Y002711D01*
X008110Y002613D02*
X007061Y002613D01*
X007121Y002514D02*
X008110Y002514D01*
X008110Y002416D02*
X007157Y002416D01*
X007099Y002810D02*
X008110Y002810D01*
X008110Y002908D02*
X007198Y002908D01*
X007245Y003007D02*
X008110Y003007D01*
X008110Y003105D02*
X007286Y003105D01*
X007310Y003204D02*
X008110Y003204D01*
X008110Y003302D02*
X007310Y003302D01*
X007310Y003401D02*
X008110Y003401D01*
X008110Y003499D02*
X007279Y003499D01*
X007239Y003598D02*
X008110Y003598D01*
X008110Y003696D02*
X007181Y003696D01*
X007084Y003795D02*
X008110Y003795D01*
X008110Y003893D02*
X007183Y003893D01*
X007239Y003992D02*
X008110Y003992D01*
X008110Y004090D02*
X007280Y004090D01*
X007310Y004189D02*
X008110Y004189D01*
X008110Y004287D02*
X007310Y004287D01*
X007310Y004386D02*
X008110Y004386D01*
X008110Y004484D02*
X007286Y004484D01*
X007245Y004583D02*
X008110Y004583D01*
X008110Y004681D02*
X007196Y004681D01*
X007098Y004780D02*
X008110Y004780D01*
X008110Y004878D02*
X007168Y004878D01*
X007233Y004977D02*
X008110Y004977D01*
X008110Y005075D02*
X007274Y005075D01*
X007310Y005174D02*
X008110Y005174D01*
X008110Y005272D02*
X007310Y005272D01*
X007310Y005371D02*
X008110Y005371D01*
X008110Y005469D02*
X007320Y005469D01*
X007419Y005568D02*
X008110Y005568D01*
X008110Y005666D02*
X007517Y005666D01*
X007599Y005765D02*
X008110Y005765D01*
X008110Y005863D02*
X007640Y005863D01*
X007640Y005962D02*
X008110Y005962D01*
X008110Y006060D02*
X007640Y006060D01*
X007640Y006159D02*
X008110Y006159D01*
X008110Y006257D02*
X007640Y006257D01*
X007640Y006356D02*
X008110Y006356D01*
X008110Y006454D02*
X007640Y006454D01*
X007640Y006553D02*
X008110Y006553D01*
X008110Y006651D02*
X007640Y006651D01*
X007640Y006750D02*
X008110Y006750D01*
X008110Y006848D02*
X007640Y006848D01*
X007608Y006947D02*
X008110Y006947D01*
X008110Y007045D02*
X007540Y007045D01*
X007375Y007144D02*
X008110Y007144D01*
X008110Y007242D02*
X007310Y007242D01*
X007310Y007341D02*
X008110Y007341D01*
X008110Y007439D02*
X007304Y007439D01*
X007263Y007538D02*
X008110Y007538D01*
X008110Y007636D02*
X007223Y007636D01*
X007241Y007735D02*
X008110Y007735D01*
X008110Y007833D02*
X007296Y007833D01*
X007310Y007932D02*
X008110Y007932D01*
X008110Y008030D02*
X007310Y008030D01*
X007310Y008129D02*
X008110Y008129D01*
X008110Y008227D02*
X007310Y008227D01*
X007310Y008326D02*
X008110Y008326D01*
X008110Y008424D02*
X007310Y008424D01*
X007310Y008523D02*
X008110Y008523D01*
X008110Y008621D02*
X007310Y008621D01*
X007310Y008720D02*
X008110Y008720D01*
X008110Y008818D02*
X007270Y008818D01*
X007167Y008917D02*
X008110Y008917D01*
X008110Y009015D02*
X000440Y009015D01*
X000440Y008917D02*
X006133Y008917D01*
X006030Y008818D02*
X000440Y008818D01*
X000440Y008720D02*
X005990Y008720D01*
X005990Y008621D02*
X000440Y008621D01*
X000440Y008523D02*
X005990Y008523D01*
X005990Y008424D02*
X000440Y008424D01*
X000440Y008326D02*
X005990Y008326D01*
X005990Y008227D02*
X000440Y008227D01*
X000440Y008129D02*
X005990Y008129D01*
D17*
X006275Y007669D02*
X006650Y007294D01*
X006275Y007669D02*
X002650Y007669D01*
X002650Y006794D01*
X001650Y006794D01*
X001650Y006294D02*
X002650Y006294D01*
X002650Y004919D01*
X005275Y004919D01*
X006650Y006294D01*
X007290Y005934D02*
X006650Y005294D01*
X007290Y005934D02*
X007290Y006800D01*
X007284Y006794D01*
X003650Y006794D01*
M02*
