G75*
G70*
%OFA0B0*%
%FSLAX24Y24*%
%IPPOS*%
%LPD*%
%AMOC8*
5,1,8,0,0,1.08239X$1,22.5*
%
%ADD10C,0.0000*%
%ADD11R,0.0740X0.0740*%
%ADD12C,0.0740*%
%ADD13R,0.1500X0.0290*%
%ADD14C,0.0060*%
%ADD15C,0.0240*%
D10*
X000100Y000100D02*
X000100Y010600D01*
X012100Y010600D01*
X012100Y000100D01*
X000100Y000100D01*
D11*
X010600Y008600D03*
D12*
X010600Y007600D03*
X010600Y006600D03*
X010600Y005600D03*
X010600Y004600D03*
X010600Y003600D03*
X010600Y002600D03*
X010600Y001600D03*
D13*
X003850Y004100D03*
X003850Y004600D03*
X003850Y005100D03*
X003850Y005600D03*
X003850Y006100D03*
X001850Y006100D03*
X001850Y005600D03*
X001850Y005100D03*
X001850Y004600D03*
X001850Y004100D03*
D14*
X002100Y004100D01*
X002100Y001600D01*
X010600Y001600D01*
X011100Y001100D02*
X000600Y001100D01*
X000600Y004100D01*
X001100Y004600D01*
X001600Y004600D01*
X001850Y004600D01*
X001850Y005100D02*
X001600Y005100D01*
X001100Y005100D01*
X000600Y005600D01*
X001850Y006100D02*
X002100Y006100D01*
X002100Y009600D01*
X011100Y009600D01*
X011600Y009100D01*
X011600Y006100D01*
X010100Y006100D01*
X010100Y003100D01*
X010600Y002600D01*
X011100Y001100D02*
X011100Y005100D01*
X010600Y005600D01*
X010600Y006600D02*
X011100Y007100D01*
X011100Y009100D01*
X005100Y009100D01*
X005100Y005600D01*
X004600Y005100D01*
X004100Y005100D01*
X003850Y005100D01*
X003850Y004600D02*
X004100Y004600D01*
X004600Y004600D01*
X005600Y005600D01*
X005600Y008600D01*
X010600Y008600D01*
D15*
X000600Y005600D03*
M02*
