%
M48
M72
T01C0.0276
T02C0.0400
%
T01
X3300Y1331
X3300Y2119
X3300Y11370
X3300Y12158
X12355Y12158
X12355Y11370
X12355Y2119
X12355Y1331
T02
X15705Y1294
X15705Y2294
X15705Y3294
X15705Y4294
X15705Y5294
X15705Y6294
X15705Y7294
X15705Y8294
X15705Y11333
X15705Y12333
X15705Y13333
X15705Y14333
X15705Y15333
X15705Y16333
X15705Y17333
X15705Y18333
X6650Y18333
X6650Y17333
X6650Y16333
X6650Y15333
X6650Y14333
X6650Y13333
X6650Y12333
X6650Y11333
X6650Y8294
X6650Y7294
X6650Y6294
X6650Y5294
X6650Y4294
X6650Y3294
X6650Y2294
X6650Y1294
M30
