G75*
G70*
%OFA0B0*%
%FSLAX24Y24*%
%IPPOS*%
%LPD*%
%AMOC8*
5,1,8,0,0,1.08239X$1,22.5*
%
%ADD10C,0.0000*%
%ADD11C,0.0030*%
%ADD12C,0.0060*%
%ADD13C,0.0050*%
%ADD14C,0.0080*%
D10*
X000100Y000100D02*
X000100Y010100D01*
X012100Y010100D01*
X012100Y000100D01*
X000100Y000100D01*
D11*
X008590Y001513D02*
X008713Y001390D01*
X008837Y001513D01*
X008837Y001760D01*
X008958Y001699D02*
X008958Y001452D01*
X009020Y001390D01*
X009143Y001390D01*
X009205Y001452D01*
X009327Y001452D02*
X009388Y001390D01*
X009512Y001390D01*
X009574Y001452D01*
X009574Y001699D02*
X009512Y001760D01*
X009388Y001760D01*
X009327Y001699D01*
X009327Y001452D01*
X009205Y001699D02*
X009143Y001760D01*
X009020Y001760D01*
X008958Y001699D01*
X008590Y001760D02*
X008590Y001513D01*
X008652Y002390D02*
X008775Y002390D01*
X008837Y002452D01*
X008837Y002575D01*
X008713Y002575D01*
X008590Y002452D02*
X008652Y002390D01*
X008590Y002452D02*
X008590Y002699D01*
X008652Y002760D01*
X008775Y002760D01*
X008837Y002699D01*
X008958Y002760D02*
X009205Y002390D01*
X009205Y002760D01*
X009327Y002760D02*
X009512Y002760D01*
X009574Y002699D01*
X009574Y002452D01*
X009512Y002390D01*
X009327Y002390D01*
X009327Y002760D01*
X008958Y002760D02*
X008958Y002390D01*
X008958Y003390D02*
X008958Y003760D01*
X009143Y003760D01*
X009205Y003699D01*
X009205Y003575D01*
X009143Y003513D01*
X008958Y003513D01*
X009082Y003513D02*
X009205Y003390D01*
X008837Y003452D02*
X008837Y003699D01*
X008775Y003760D01*
X008590Y003760D01*
X008590Y003390D01*
X008775Y003390D01*
X008837Y003452D01*
X008775Y004390D02*
X008590Y004390D01*
X008590Y004760D01*
X008775Y004760D01*
X008837Y004699D01*
X008837Y004452D01*
X008775Y004390D01*
X009082Y004390D02*
X009082Y004760D01*
X009205Y004760D02*
X008958Y004760D01*
X008958Y005390D02*
X009205Y005760D01*
X008958Y005760D02*
X009205Y005390D01*
X008837Y005390D02*
X008713Y005513D01*
X008775Y005513D02*
X008590Y005513D01*
X008775Y005513D02*
X008837Y005575D01*
X008837Y005699D01*
X008775Y005760D01*
X008590Y005760D01*
X008590Y005390D01*
X008713Y006390D02*
X008713Y006760D01*
X008590Y006760D02*
X008837Y006760D01*
X008958Y006760D02*
X009205Y006390D01*
X008958Y006390D02*
X009205Y006760D01*
X009205Y007390D02*
X009205Y007760D01*
X009327Y007760D02*
X009512Y007760D01*
X009574Y007699D01*
X009574Y007575D01*
X009512Y007513D01*
X009327Y007513D01*
X009327Y007390D02*
X009327Y007760D01*
X009450Y007513D02*
X009574Y007390D01*
X009205Y007390D02*
X009082Y007513D01*
X008958Y007390D01*
X008958Y007760D01*
X008837Y007699D02*
X008837Y007575D01*
X008775Y007513D01*
X008590Y007513D01*
X008590Y007390D02*
X008590Y007760D01*
X008775Y007760D01*
X008837Y007699D01*
X008837Y008390D02*
X008713Y008513D01*
X008775Y008513D02*
X008590Y008513D01*
X008590Y008390D02*
X008590Y008760D01*
X008775Y008760D01*
X008837Y008699D01*
X008837Y008575D01*
X008775Y008513D01*
X008958Y008452D02*
X009020Y008390D01*
X009143Y008390D01*
X009205Y008452D01*
X009205Y008513D01*
X009143Y008575D01*
X009020Y008575D01*
X008958Y008637D01*
X008958Y008699D01*
X009020Y008760D01*
X009143Y008760D01*
X009205Y008699D01*
X009327Y008760D02*
X009574Y008760D01*
X009450Y008760D02*
X009450Y008390D01*
X009349Y009215D02*
X009225Y009215D01*
X009163Y009277D01*
X009410Y009524D01*
X009410Y009277D01*
X009349Y009215D01*
X009163Y009277D02*
X009163Y009524D01*
X009225Y009585D01*
X009349Y009585D01*
X009410Y009524D01*
X009532Y009524D02*
X009593Y009585D01*
X009717Y009585D01*
X009779Y009524D01*
X009532Y009277D01*
X009593Y009215D01*
X009717Y009215D01*
X009779Y009277D01*
X009779Y009524D01*
X009532Y009524D02*
X009532Y009277D01*
X009042Y009277D02*
X009042Y009524D01*
X008980Y009585D01*
X008857Y009585D01*
X008795Y009524D01*
X008795Y009462D01*
X008857Y009400D01*
X009042Y009400D01*
X009042Y009277D02*
X008980Y009215D01*
X008857Y009215D01*
X008795Y009277D01*
X008305Y009215D02*
X008305Y009400D01*
X008244Y009462D01*
X008182Y009400D01*
X008182Y009215D01*
X008059Y009215D02*
X008059Y009462D01*
X008120Y009462D01*
X008182Y009400D01*
X007936Y009215D02*
X007813Y009215D01*
X007875Y009215D02*
X007875Y009462D01*
X007813Y009462D01*
X007692Y009462D02*
X007506Y009462D01*
X007445Y009400D01*
X007506Y009338D01*
X007630Y009338D01*
X007692Y009277D01*
X007630Y009215D01*
X007445Y009215D01*
X007875Y009585D02*
X007875Y009647D01*
X006955Y009524D02*
X006955Y009277D01*
X006893Y009215D01*
X006770Y009215D01*
X006708Y009277D01*
X006955Y009524D01*
X006893Y009585D01*
X006770Y009585D01*
X006708Y009524D01*
X006708Y009277D01*
X006586Y009277D02*
X006586Y009215D01*
X006524Y009215D01*
X006524Y009277D01*
X006586Y009277D01*
X006402Y009215D02*
X006156Y009215D01*
X006279Y009215D02*
X006279Y009585D01*
X006156Y009462D01*
X005666Y009462D02*
X005542Y009215D01*
X005419Y009462D01*
X005297Y009400D02*
X005297Y009338D01*
X005051Y009338D01*
X005051Y009277D02*
X005051Y009400D01*
X005112Y009462D01*
X005236Y009462D01*
X005297Y009400D01*
X005236Y009215D02*
X005112Y009215D01*
X005051Y009277D01*
X004929Y009462D02*
X004867Y009462D01*
X004744Y009338D01*
X004744Y009215D02*
X004744Y009462D01*
X004254Y009400D02*
X004007Y009400D01*
X003517Y009462D02*
X003332Y009462D01*
X003270Y009400D01*
X003270Y009277D01*
X003332Y009215D01*
X003517Y009215D01*
X003148Y009215D02*
X003025Y009215D01*
X003087Y009215D02*
X003087Y009585D01*
X003025Y009585D01*
X002841Y009585D02*
X002841Y009215D01*
X002779Y009215D02*
X002903Y009215D01*
X002841Y009585D02*
X002779Y009585D01*
X002289Y009277D02*
X002227Y009277D01*
X002227Y009215D01*
X002289Y009215D01*
X002289Y009277D01*
X002289Y009215D02*
X002165Y009092D01*
X001982Y009215D02*
X002044Y009277D01*
X002044Y009400D01*
X001982Y009462D01*
X001859Y009462D01*
X001797Y009400D01*
X001797Y009277D01*
X001859Y009215D01*
X001982Y009215D01*
X001675Y009215D02*
X001552Y009215D01*
X001613Y009215D02*
X001613Y009585D01*
X001552Y009585D01*
X001430Y009462D02*
X001183Y009215D01*
X001430Y009215D01*
X001430Y009462D02*
X001183Y009462D01*
X001062Y009400D02*
X001000Y009462D01*
X000877Y009462D01*
X000815Y009400D01*
X000815Y009277D01*
X000877Y009215D01*
X001000Y009215D01*
X001062Y009277D01*
X001062Y009400D01*
D12*
X001630Y008521D02*
X001630Y007987D01*
X001737Y007880D01*
X001950Y007880D01*
X002057Y007987D01*
X002057Y008521D01*
D13*
X001650Y007600D02*
X003850Y007600D01*
X003850Y006350D01*
X001850Y006350D02*
X001850Y007230D01*
X001650Y007230D01*
X001650Y007600D01*
X001650Y005350D02*
X001850Y005350D01*
X001850Y004850D02*
X001650Y004850D01*
X001850Y003850D02*
X001850Y002970D01*
X001650Y002970D01*
X001650Y002600D01*
X003850Y002600D01*
X003850Y003850D01*
X011345Y007924D02*
X011345Y008074D01*
X011345Y007999D02*
X011720Y007999D01*
X011795Y007924D01*
X011795Y007849D01*
X011720Y007774D01*
X011795Y008234D02*
X011345Y008234D01*
X011345Y008459D01*
X011420Y008534D01*
X011570Y008534D01*
X011645Y008459D01*
X011645Y008234D01*
X011795Y008695D02*
X011795Y008995D01*
X011795Y008845D02*
X011345Y008845D01*
X011495Y008695D01*
D14*
X011100Y008850D02*
X011100Y008350D01*
X010850Y008100D01*
X011100Y007850D01*
X011100Y007350D01*
X010850Y007100D01*
X011100Y006850D01*
X011100Y006350D01*
X010850Y006100D01*
X011100Y005850D01*
X011100Y005350D01*
X010850Y005100D01*
X011100Y004850D01*
X011100Y004350D01*
X010850Y004100D01*
X011100Y003850D01*
X011100Y003350D01*
X010850Y003100D01*
X011100Y002850D01*
X011100Y002350D01*
X010850Y002100D01*
X011100Y001850D01*
X011100Y001350D01*
X010850Y001100D01*
X010350Y001100D01*
X010100Y001350D01*
X010100Y001850D01*
X010350Y002100D01*
X010100Y002350D01*
X010100Y002850D01*
X010350Y003100D01*
X010100Y003350D01*
X010100Y003850D01*
X010350Y004100D01*
X010100Y004350D01*
X010100Y004850D01*
X010350Y005100D01*
X010100Y005350D01*
X010100Y005850D01*
X010350Y006100D01*
X010100Y006350D01*
X010100Y006850D01*
X010350Y007100D01*
X010100Y007350D01*
X010100Y007850D01*
X010350Y008100D01*
X010100Y008350D01*
X010100Y008850D01*
X010350Y009100D01*
X010850Y009100D01*
X011100Y008850D01*
M02*
